<?xml version="1.0" encoding="utf-8"?>
<!-- Generator: Adobe Illustrator 16.0.0, SVG Export Plug-In . SVG Version: 6.00 Build 0)  -->
<!DOCTYPE svg PUBLIC "-//W3C//DTD SVG 1.1//EN" "http://www.w3.org/Graphics/SVG/1.1/DTD/svg11.dtd">
<svg version="1.1" id="Layer_1" xmlns="http://www.w3.org/2000/svg" xmlns:xlink="http://www.w3.org/1999/xlink" x="0px" y="0px"
	 width="95.818px" height="18.119px" viewBox="0 0 95.818 18.119" enable-background="new 0 0 95.818 18.119" xml:space="preserve">
<g>
	<path fill="#FFFFFF" d="M44.977,4.47h-8.912c-0.17,0-0.298,0.148-0.298,0.297v1.83c0,0.17,0.128,0.298,0.298,0.298h3.148v6.913
		c0,0.148,0.127,0.276,0.298,0.276h2.021c0.149,0,0.298-0.128,0.298-0.276V6.895h3.148c0.149,0,0.277-0.128,0.277-0.298v-1.83
		C45.254,4.618,45.126,4.47,44.977,4.47z"/>
	<path fill="#FFFFFF" d="M22.58,4.47h-2.021c-0.17,0-0.298,0.148-0.298,0.297v0.362C19.666,4.64,18.772,4.15,17.517,4.15
		c-2.723,0-4.743,2.127-4.743,5.126c0,3.021,2.042,5.147,4.658,5.147c1.34,0,2.233-0.468,2.829-0.957v0.341
		c0,0.148,0.127,0.276,0.298,0.276h2.021c0.149,0,0.298-0.128,0.298-0.276V4.767C22.877,4.618,22.729,4.47,22.58,4.47z
		 M20.261,11.021c0,0-0.638,0.979-2.297,0.979c-1.553,0-2.51-1.105-2.51-2.723c0-1.638,0.957-2.701,2.51-2.701
		c1.595,0,2.297,0.979,2.297,0.979V11.021z"/>
	<path fill="#FFFFFF" d="M34.214,4.47h-2.021c-0.149,0-0.298,0.148-0.298,0.297v3.318h-4.211V4.767c0-0.149-0.149-0.297-0.298-0.297
		h-2.021c-0.17,0-0.298,0.148-0.298,0.297v9.041c0,0.148,0.127,0.276,0.298,0.276h2.021c0.149,0,0.298-0.128,0.298-0.276v-3.318
		h4.211v3.318c0,0.148,0.149,0.276,0.298,0.276h2.021c0.17,0,0.298-0.128,0.298-0.276V4.767C34.512,4.618,34.385,4.47,34.214,4.47z"
		/>
	<path fill="#FFFFFF" d="M8.116,7.149l4.424-6.338c0.127-0.17,0.021-0.383-0.17-0.383h-2.276c-0.276,0-0.446,0.085-0.595,0.319
		l-2.914,4.19l-2.872-4.19C3.564,0.513,3.394,0.428,3.117,0.428H0.735c-0.191,0-0.276,0.213-0.17,0.383l4.424,6.424L0.48,13.722
		c-0.106,0.149-0.021,0.362,0.191,0.362h2.254c0.298,0,0.468-0.128,0.596-0.319l2.999-4.297l2.978,4.297
		c0.149,0.213,0.298,0.319,0.595,0.319h2.361c0.212,0,0.297-0.213,0.191-0.362L8.116,7.149z"/>
	<path fill="#FFFFFF" d="M78.676,4.15c-3.021,0-5.275,2.106-5.275,5.126c0,3.021,2.255,5.147,5.275,5.147
		c3.02,0,5.275-2.127,5.275-5.147C83.951,6.256,81.696,4.15,78.676,4.15z M78.676,11.999c-1.468,0-2.574-1.063-2.574-2.723
		c0-1.659,1.106-2.723,2.574-2.723s2.574,1.064,2.574,2.723C81.25,10.936,80.144,11.999,78.676,11.999z"/>
	<path fill="#FFFFFF" d="M95.139,4.47h-1.978c-0.234,0-0.362,0.127-0.447,0.34l-2.786,6.445L87.142,4.81
		c-0.085-0.213-0.213-0.34-0.468-0.34h-2.084c-0.234,0-0.34,0.148-0.277,0.361c4.19,9.465,4.211,9.508,4.211,9.508
		c-0.425,0.617-1.021,0.894-1.744,0.894c-0.149,0-0.404-0.043-0.489-0.043c-0.255-0.021-0.426,0.17-0.426,0.426v1.51
		c0,0.298,0.17,0.426,0.383,0.468c0.212,0.043,0.574,0.086,0.787,0.086c2.084,0,3.403-1.341,4.105-2.979l4.275-9.869
		C95.479,4.618,95.373,4.47,95.139,4.47z"/>
	<path fill="#FFFFFF" d="M57.271,4.15c-0.894,0-1.574,0.213-2.106,0.489V2.13c0-0.149-0.127-0.277-0.298-0.277h-2.021
		c-0.149,0-0.298,0.128-0.298,0.277v2.51c-0.553-0.276-1.233-0.489-2.084-0.489c-2.616,0-4.68,2.191-4.68,5.126
		c0,2.829,1.936,5.147,4.68,5.147c0.872,0,1.531-0.191,2.084-0.468v3.425c0,0.17,0.149,0.298,0.298,0.298h2.021
		c0.17,0,0.298-0.128,0.298-0.298v-3.446c0.532,0.276,1.234,0.489,2.106,0.489c2.616,0,4.658-2.19,4.658-5.147
		C61.93,6.469,60.015,4.15,57.271,4.15z M52.549,11.616c-0.383,0.213-0.894,0.383-1.553,0.383c-1.531,0-2.51-1.085-2.51-2.723
		c0-1.574,0.979-2.701,2.51-2.701c0.681,0,1.191,0.17,1.553,0.362V11.616z M56.74,11.999c-0.702,0-1.213-0.17-1.574-0.361V6.979
		c0.361-0.213,0.894-0.404,1.574-0.404c1.51,0,2.51,1.085,2.51,2.701C59.25,10.872,58.271,11.999,56.74,11.999z"/>
	<path fill="#FFFFFF" d="M69.317,4.767c-0.085-0.212-0.17-0.297-0.426-0.297h-2.424c-0.234,0-0.319,0.085-0.404,0.297l-3.744,8.976
		c-0.064,0.17,0.042,0.341,0.276,0.341h1.915c0.255,0,0.383-0.106,0.468-0.319l2.638-6.36l2.659,6.36
		c0.106,0.233,0.234,0.319,0.468,0.319h2.042c0.234,0,0.34-0.149,0.277-0.341L69.317,4.767z"/>
</g>
</svg>
