<?xml version="1.0" encoding="UTF-8" standalone="no"?>
<svg width="30px" height="30px" viewBox="0 0 30 30" version="1.1" xmlns="http://www.w3.org/2000/svg" xmlns:xlink="http://www.w3.org/1999/xlink" xmlns:sketch="http://www.bohemiancoding.com/sketch/ns">
    <title>Untitled 4</title>
    <description>Created with Sketch (http://www.bohemiancoding.com/sketch)</description>
    <defs></defs>
    <g id="Page-1" stroke="none" stroke-width="1" fill="none" fill-rule="evenodd" sketch:type="MSPage">
        <g id="logo-hh" sketch:type="MSLayerGroup">
            <g id="Group" sketch:type="MSShapeGroup">
                <path d="M30,15 C30,23.289 23.284,30.001 15,30.001 C6.717,30.001 0,23.289 0,15 C0,6.716 6.717,0 14.999,0 C23.284,0 30,6.716 30,15 L30,15 Z" id="Shape" fill="#EE2200"></path>
                <g transform="translate(6.000000, 8.000000)" id="Shape" fill="#FFFFFF">
                    <path d="M2.455,-0.261 L2.455,4.886 C3.238,3.952 4.177,3.481 5.267,3.481 C5.828,3.481 6.331,3.588 6.782,3.801 C7.234,4.012 7.573,4.283 7.8,4.612 C8.03,4.944 8.185,5.308 8.269,5.709 C8.353,6.107 8.394,6.73 8.394,7.571 L8.394,13.074 L5.958,13.074 L5.958,8.118 C5.958,7.134 5.915,6.511 5.822,6.246 C5.729,5.979 5.567,5.77 5.333,5.616 C5.099,5.457 4.807,5.38 4.455,5.38 C4.051,5.38 3.689,5.482 3.375,5.681 C3.054,5.883 2.823,6.184 2.677,6.587 C2.528,6.99 2.454,7.586 2.457,8.375 L2.454,13.074 L0.021,13.074 L0.021,-0.261 L2.455,-0.261 L2.455,-0.261 Z"></path>
                    <path d="M12.042,-0.261 L12.042,4.886 C12.825,3.952 13.764,3.481 14.854,3.481 C15.413,3.481 15.918,3.588 16.372,3.801 C16.821,4.012 17.159,4.283 17.387,4.612 C17.616,4.944 17.772,5.308 17.856,5.709 C17.939,6.107 17.981,6.73 17.981,7.571 L17.981,13.074 L15.548,13.074 L15.548,8.118 C15.548,7.134 15.502,6.511 15.409,6.246 C15.316,5.979 15.154,5.77 14.92,5.616 C14.688,5.457 14.394,5.38 14.041,5.38 C13.638,5.38 13.276,5.482 12.962,5.681 C12.645,5.883 12.412,6.184 12.264,6.587 C12.118,6.99 12.044,7.586 12.044,8.375 L12.044,13.074 L9.61,13.074 L9.61,-0.261 L12.042,-0.261 L12.042,-0.261 Z"></path>
                </g>
            </g>
        </g>
    </g>
</svg>