<?xml version="1.0" encoding="UTF-8" standalone="no"?>
<svg width="579px" height="351px" viewBox="0 0 579 351" version="1.1" xmlns="http://www.w3.org/2000/svg" xmlns:xlink="http://www.w3.org/1999/xlink" xmlns:sketch="http://www.bohemiancoding.com/sketch/ns">
    <title>soa with cache</title>
    <description>Created with Sketch (http://www.bohemiancoding.com/sketch)</description>
    <defs></defs>
    <g id="Page-1" stroke="none" stroke-width="1" fill="none" fill-rule="evenodd" sketch:type="MSPage">
        <path d="M86,64.5 L86,113.540798" id="Line" stroke="#4A4A4A" stroke-width="2" stroke-linecap="square" sketch:type="MSShapeGroup"></path>
        <path id="Line-decoration-1" d="M83,102.7 C84.05,106.48 84.95,109.72 86,113.5 C87.05,109.72 87.95,106.48 89,102.7" stroke="#4A4A4A" stroke-width="2" stroke-linecap="square"></path>
        <text id="/index" sketch:type="MSTextLayer" font-family="Helvetica" font-size="14" font-weight="normal" sketch:alignment="middle" fill="#000000">
            <tspan x="98" y="92">/index</tspan>
        </text>
        <rect id="Rectangle-1" stroke="#979797" sketch:type="MSShapeGroup" x="1" y="117" width="170" height="56" rx="8"></rect>
        <text id="Controller" sketch:type="MSTextLayer" font-family="Helvetica" font-size="14" font-weight="normal" sketch:alignment="middle" fill="#000000">
            <tspan x="57" y="150">Controller</tspan>
        </text>
        <rect id="Rectangle-1" stroke="#979797" sketch:type="MSShapeGroup" x="1" y="226" width="170" height="56" rx="8"></rect>
        <text id="View" sketch:type="MSTextLayer" font-family="Helvetica" font-size="14" font-weight="normal" sketch:alignment="middle" fill="#000000">
            <tspan x="71" y="259">View</tspan>
        </text>
        <rect id="Rectangle-1" stroke="#979797" sketch:type="MSShapeGroup" x="275" y="44" width="170" height="56" rx="8"></rect>
        <text id="Сессия" sketch:type="MSTextLayer" font-family="Helvetica" font-size="14" font-weight="normal" sketch:alignment="middle" fill="#000000">
            <tspan x="338.5" y="77">Сессия</tspan>
        </text>
        <rect id="Rectangle-1" stroke="#979797" sketch:type="MSShapeGroup" x="275" y="182" width="170" height="56" rx="8"></rect>
        <text id="Сервис-откликов" sketch:type="MSTextLayer" font-family="Helvetica" font-size="14" font-weight="normal" sketch:alignment="middle" fill="#000000">
            <tspan x="303" y="214">Сервис откликов</tspan>
        </text>
        <rect id="Rectangle-1" stroke="#979797" sketch:type="MSShapeGroup" x="275" y="112" width="170" height="56" rx="8"></rect>
        <text id="Сервис-резюме" sketch:type="MSTextLayer" font-family="Helvetica" font-size="14" font-weight="normal" sketch:alignment="middle" fill="#000000">
            <tspan x="310" y="145">Сервис резюме</tspan>
        </text>
        <path d="M86,174.5 L86,223.540798" id="Line" stroke="#4A4A4A" stroke-width="2" stroke-linecap="square" sketch:type="MSShapeGroup"></path>
        <path id="Line-decoration-1" d="M83,212.7 C84.05,216.48 84.95,219.72 86,223.5 C87.05,219.72 87.95,216.48 89,212.7" stroke="#4A4A4A" stroke-width="2" stroke-linecap="square"></path>
        <path d="M170.5,142.5 L276.5,69.5" id="Line" stroke="#4A4A4A" stroke-width="2" stroke-linecap="square" sketch:type="MSShapeGroup"></path>
        <path id="Line-decoration-1" d="M268.726105,78.4963171 C271.243721,75.4875783 273.401677,72.9086594 275.919293,69.8999206 C272.210582,71.179124 269.031687,72.2755841 265.322976,73.5547875" stroke="#4A4A4A" stroke-width="2" stroke-linecap="square"></path>
        <path d="M170.5,143.5 L275,143.5" id="Line" stroke="#4A4A4A" stroke-width="2" stroke-linecap="square" sketch:type="MSShapeGroup"></path>
        <path id="Line-decoration-1" d="M263.7,146.5 C267.48,145.45 270.72,144.55 274.5,143.5 C270.72,142.45 267.48,141.55 263.7,140.5" stroke="#4A4A4A" stroke-width="2" stroke-linecap="square"></path>
        <path d="M170.5,143.5 L274,210" id="Line" stroke="#4A4A4A" stroke-width="2" stroke-linecap="square" sketch:type="MSShapeGroup"></path>
        <path id="Line-decoration-1" d="M263.273383,206.673885 C267.021117,207.833796 270.23346,208.828005 273.981193,209.987916 C271.368619,207.061253 269.12927,204.552685 266.516696,201.626021" stroke="#4A4A4A" stroke-width="2" stroke-linecap="square"></path>
        <g id="Group-+-DB" sketch:type="MSLayerGroup" transform="translate(509.000000, 29.000000)">
            <g id="Group" sketch:type="MSShapeGroup">
                <ellipse id="Oval-1" stroke="#979797" fill="#D8D8D8" cx="35" cy="60" rx="33" ry="14"></ellipse>
                <rect id="Rectangle-2" fill="#D8D8D8" x="1" y="15" width="68" height="45"></rect>
                <ellipse id="Oval-1" stroke="#979797" fill="#D8D8D8" cx="35" cy="14" rx="33" ry="14"></ellipse>
                <path d="M1.5,14.5 L1.5,59.5" id="Line" stroke="#979797" stroke-linecap="square"></path>
                <path d="M68.5,14.5 L68.5,59.5" id="Line" stroke="#979797" stroke-linecap="square"></path>
            </g>
            <text id="DB1" sketch:type="MSTextLayer" font-family="Helvetica" font-size="14" font-weight="normal" sketch:alignment="middle" fill="#000000">
                <tspan x="21" y="51.2197266">DB1</tspan>
            </text>
        </g>
        <g id="Group-+-DB" sketch:type="MSLayerGroup" transform="translate(509.000000, 113.000000)">
            <g id="Group" sketch:type="MSShapeGroup">
                <ellipse id="Oval-1" stroke="#979797" fill="#D8D8D8" cx="35" cy="60" rx="33" ry="14"></ellipse>
                <rect id="Rectangle-2" fill="#D8D8D8" x="1" y="15" width="68" height="45"></rect>
                <ellipse id="Oval-1" stroke="#979797" fill="#D8D8D8" cx="35" cy="14" rx="33" ry="14"></ellipse>
                <path d="M1.5,14.5 L1.5,59.5" id="Line" stroke="#979797" stroke-linecap="square"></path>
                <path d="M68.5,14.5 L68.5,59.5" id="Line" stroke="#979797" stroke-linecap="square"></path>
            </g>
            <text id="DB2" sketch:type="MSTextLayer" font-family="Helvetica" font-size="14" font-weight="normal" sketch:alignment="middle" fill="#000000">
                <tspan x="21" y="51.2197266">DB2</tspan>
            </text>
        </g>
        <g id="Group-+-DB" sketch:type="MSLayerGroup" transform="translate(509.000000, 197.000000)">
            <g id="Group" sketch:type="MSShapeGroup">
                <ellipse id="Oval-1" stroke="#979797" fill="#D8D8D8" cx="35" cy="60" rx="33" ry="14"></ellipse>
                <rect id="Rectangle-2" fill="#D8D8D8" x="1" y="15" width="68" height="45"></rect>
                <ellipse id="Oval-1" stroke="#979797" fill="#D8D8D8" cx="35" cy="14" rx="33" ry="14"></ellipse>
                <path d="M1.5,14.5 L1.5,59.5" id="Line" stroke="#979797" stroke-linecap="square"></path>
                <path d="M68.5,14.5 L68.5,59.5" id="Line" stroke="#979797" stroke-linecap="square"></path>
            </g>
            <text id="DB3" sketch:type="MSTextLayer" font-family="Helvetica" font-size="14" font-weight="normal" sketch:alignment="middle" fill="#000000">
                <tspan x="21" y="51.2197266">DB3</tspan>
            </text>
        </g>
        <path d="M444.5,65.5 L511,71" id="Line" stroke="#4A4A4A" stroke-width="2" stroke-linecap="square" sketch:type="MSShapeGroup"></path>
        <path id="Line-decoration-1" d="M499.26489,73.0396701 C503.118574,72.3048108 506.421732,71.6749313 510.275416,70.940072 C506.594825,69.5820771 503.440033,68.4180815 499.759442,67.0600866" stroke="#4A4A4A" stroke-width="2" stroke-linecap="square"></path>
        <path d="M444,140 L510,145" id="Line" stroke="#4A4A4A" stroke-width="2" stroke-linecap="square" sketch:type="MSShapeGroup"></path>
        <path id="Line-decoration-1" d="M498.815651,147.161297 C502.664169,146.399843 505.962898,145.747168 509.811415,144.985713 C506.121534,143.653168 502.958779,142.510986 499.268898,141.178441" stroke="#4A4A4A" stroke-width="2" stroke-linecap="square"></path>
        <path d="M446,210 L511,229" id="Line" stroke="#4A4A4A" stroke-width="2" stroke-linecap="square" sketch:type="MSShapeGroup"></path>
        <path id="Line-decoration-1" d="M499.100997,228.647369 C503.023767,228.700086 506.386141,228.745272 510.308911,228.797989 C506.975332,226.72962 504.117978,224.956732 500.784399,222.888362" stroke="#4A4A4A" stroke-width="2" stroke-linecap="square"></path>
        <text id="protobuf" sketch:type="MSTextLayer" transform="translate(218.500000, 99.000000) rotate(-34.000000) translate(-218.500000, -99.000000) " font-family="Helvetica" font-size="11" font-weight="normal" sketch:alignment="middle" fill="#000000">
            <tspan x="198" y="102">protobuf</tspan>
        </text>
        <text id="JSON" sketch:type="MSTextLayer" font-family="Helvetica" font-size="11" font-weight="normal" sketch:alignment="middle" fill="#000000">
            <tspan x="210.805664" y="140">JSON</tspan>
        </text>
        <text id="XML" sketch:type="MSTextLayer" transform="translate(229.805664, 173.487305) rotate(35.000000) translate(-229.805664, -173.487305) " font-family="Helvetica" font-size="11" font-weight="normal" sketch:alignment="middle" fill="#000000">
            <tspan x="218.305664" y="176.487305">XML</tspan>
        </text>
        <g id="Group" sketch:type="MSLayerGroup" transform="translate(137.000000, 0.000000)">
            <ellipse id="Oval-5" stroke="#EC0000" stroke-width="2" sketch:type="MSShapeGroup" cx="86" cy="164.5" rx="53" ry="142.5"></ellipse>
            <path d="M342,307 C358.016259,307 371,243.200581 371,164.5 C371,85.7994193 358.016259,22 342,22 C325.983741,22 313,85.7994193 313,164.5 C313,243.200581 325.983741,307 342,307 Z" id="Oval-6" stroke="#198DE7" stroke-width="2" sketch:type="MSShapeGroup"></path>
            <text id="memcached,-redis,-…" sketch:type="MSTextLayer" font-family="Helvetica" font-size="13" font-weight="normal" sketch:alignment="middle" fill="#198DE7">
                <tspan x="293.5" y="13">memcached, redis, …</tspan>
            </text>
            <text id="varnish,-nginx-(prox" sketch:type="MSTextLayer" font-family="Helvetica" font-size="13" font-weight="normal" sketch:alignment="middle" fill="#EC0000">
                <tspan x="0.5" y="13.0563824">varnish, nginx (proxy_cache)</tspan>
            </text>
        </g>
        <g id="Rectangle-8-+-Oval-7-+-Oval-8" sketch:type="MSLayerGroup" transform="translate(275.000000, 257.000000)" stroke="#979797" fill="#D8D8D8">
            <path d="M143.85087,37 L143.998901,37 C158.907482,37 171,49.0883118 171,64 C171,78.9149669 158.911196,91 143.998901,91 L27.0010986,91 C12.0925182,91 0,78.9116882 0,64 C0,50.0855299 10.5213648,38.6340633 24.0410574,37.1603447 L24.0410574,37.1603447 C24.7326812,25.9102434 34.0757906,17 45.5,17 C53.895498,17 61.1670807,21.8120506 64.7070833,28.8284868 C69.7179006,12.1506089 85.1899861,0 103.5,0 C124.688419,0 142.076509,16.2711335 143.85087,37 Z" id="Rectangle-8" sketch:type="MSShapeGroup"></path>
        </g>
        <path d="M170.5,143.5 L282,302" id="Line" stroke="#4A4A4A" stroke-width="2" stroke-linecap="square" sketch:type="MSShapeGroup"></path>
        <path id="Line-decoration-1" d="M272.877916,294.246809 C275.911589,296.734323 278.51188,298.866478 281.545553,301.353992 C280.229462,297.65821 279.101385,294.490397 277.785294,290.794615" stroke="#4A4A4A" stroke-width="2" stroke-linecap="square"></path>
        <text id="Cloud-Service" sketch:type="MSTextLayer" font-family="Helvetica" font-size="14" font-weight="normal" sketch:alignment="middle" fill="#000000">
            <tspan x="317" y="322">Cloud Service</tspan>
        </text>
    </g>
</svg>