<?xml version="1.0" encoding="UTF-8" standalone="no"?>
<svg width="427px" height="470px" viewBox="0 0 427 470" version="1.1" xmlns="http://www.w3.org/2000/svg" xmlns:xlink="http://www.w3.org/1999/xlink" xmlns:sketch="http://www.bohemiancoding.com/sketch/ns">
    <title>scheme</title>
    <description>Created with Sketch (http://www.bohemiancoding.com/sketch)</description>
    <defs></defs>
    <g id="Page-1" stroke="none" stroke-width="1" fill="none" fill-rule="evenodd" sketch:type="MSPage">
        <g id="Preprocessors" sketch:type="MSLayerGroup" transform="translate(123.000000, 61.000000)">
            <rect id="Rectangle-1" stroke="#979797" fill="#A9E472" sketch:type="MSShapeGroup" x="0" y="0" width="166" height="49" rx="8"></rect>
            <text fill="#000103" sketch:type="MSTextLayer" font-family="Helvetica" font-size="14" font-weight="normal" sketch:alignment="middle">
                <tspan x="37.8725586" y="30">Preprocessors</tspan>
            </text>
        </g>
        <g id="Request-Handler" sketch:type="MSLayerGroup" transform="translate(19.000000, 178.000000)">
            <rect id="Rectangle-1" stroke="#979797" fill="#CACACA" sketch:type="MSShapeGroup" x="0" y="0" width="112" height="33" rx="8"></rect>
            <text id="backend1" fill="#000000" sketch:type="MSTextLayer" font-family="Helvetica" font-size="12" font-weight="normal" sketch:alignment="middle">
                <tspan x="29.9785156" y="21">backend1</tspan>
            </text>
        </g>
        <g id="Request-Handler" sketch:type="MSLayerGroup" transform="translate(150.000000, 222.000000)">
            <rect id="Rectangle-1" stroke="#979797" fill="#CACACA" sketch:type="MSShapeGroup" x="0" y="0" width="112" height="33" rx="8"></rect>
            <text id="backend2" fill="#000000" sketch:type="MSTextLayer" font-family="Helvetica" font-size="12" font-weight="normal" sketch:alignment="middle">
                <tspan x="29.9785156" y="21">backend2</tspan>
            </text>
        </g>
        <g id="Request-Handler" sketch:type="MSLayerGroup" transform="translate(297.000000, 193.500000)">
            <rect id="Rectangle-1" stroke="#979797" fill="#CACACA" sketch:type="MSShapeGroup" x="0" y="0" width="112" height="33" rx="8"></rect>
            <text id="backend3" fill="#000000" sketch:type="MSTextLayer" font-family="Helvetica" font-size="12" font-weight="normal" sketch:alignment="middle">
                <tspan x="29.9785156" y="21">backend3</tspan>
            </text>
        </g>
        <path d="M206,27.5 L206,61.5" id="Line" stroke="#979797" stroke-width="2" stroke-linecap="square" stroke-linejoin="round" sketch:type="MSShapeGroup"></path>
        <path id="Line-decoration-1" d="M203,50.6999999 C204.05,54.4799999 204.95,57.72 206,61.5 C207.05,57.72 207.95,54.4800001 209,50.7000001" stroke="#979797" stroke-width="2" stroke-linecap="square" stroke-linejoin="round"></path>
        <g id="Postprocessors" sketch:type="MSLayerGroup" transform="translate(123.000000, 359.000000)">
            <rect id="Rectangle-1" stroke="#979797" fill="#2783CD" sketch:type="MSShapeGroup" x="0" y="0" width="166" height="49" rx="8"></rect>
            <text fill="#FFFFFF" sketch:type="MSTextLayer" font-family="Helvetica" font-size="14" font-weight="normal" sketch:alignment="middle">
                <tspan x="34.7587891" y="30">Postprocessors</tspan>
            </text>
        </g>
        <path d="M206,325.5 L206,359.5" id="Line" stroke="#979797" stroke-width="2" stroke-linecap="square" stroke-linejoin="round" sketch:type="MSShapeGroup"></path>
        <path id="Line-decoration-1" d="M203,348.7 C204.05,352.48 204.95,355.72 206,359.5 C207.05,355.72 207.95,352.48 209,348.7" stroke="#979797" stroke-width="2" stroke-linecap="square" stroke-linejoin="round"></path>
        <path d="M76,211 L76,322" id="Line" stroke="#979797" stroke-width="2" stroke-linecap="square" stroke-linejoin="round" sketch:type="MSShapeGroup"></path>
        <path id="Line-decoration-1" d="M73,311.2 C74.05,314.98 74.95,318.22 76,322 C77.05,318.22 77.95,314.98 79,311.2" stroke="#979797" stroke-width="2" stroke-linecap="square" stroke-linejoin="round"></path>
        <path d="M207,408 L207,442" id="Line" stroke="#979797" stroke-width="2" stroke-linecap="square" stroke-linejoin="round" sketch:type="MSShapeGroup"></path>
        <path id="Line-decoration-1" d="M204,431.2 C205.05,434.98 205.95,438.22 207,442 C208.05,438.22 208.95,434.98 210,431.2" stroke="#979797" stroke-width="2" stroke-linecap="square" stroke-linejoin="round"></path>
        <path d="M206,110.5 L206,144.5" id="Line" stroke="#979797" stroke-width="2" stroke-linecap="square" stroke-linejoin="round" sketch:type="MSShapeGroup"></path>
        <path id="Line-decoration-1" d="M203,133.7 C204.05,137.48 204.95,140.72 206,144.5 C207.05,140.72 207.95,137.48 209,133.7" stroke="#979797" stroke-width="2" stroke-linecap="square" stroke-linejoin="round"></path>
        <text id="User-request" fill="#000000" sketch:type="MSTextLayer" font-family="Helvetica" font-size="14" font-weight="normal" sketch:alignment="middle">
            <tspan x="167" y="16">User request</tspan>
        </text>
        <text id="HTML/JSON-or-cool-de" fill="#000000" sketch:type="MSTextLayer" font-family="Helvetica" font-size="14" font-weight="normal" sketch:alignment="right">
            <tspan x="164.897461" y="463.5">HTML/JSON or cool debug page</tspan>
        </text>
        <rect id="Rectangle-4" stroke="#979797" sketch:type="MSShapeGroup" x="2" y="144" width="423" height="181"></rect>
        <path d="M354,226.5 L354,322" id="Line" stroke="#979797" stroke-width="2" stroke-linecap="square" stroke-linejoin="round" sketch:type="MSShapeGroup"></path>
        <path id="Line-decoration-1" d="M351,310.7 C352.05,314.48 352.95,317.72 354,321.5 C355.05,317.72 355.95,314.48 357,310.7" stroke="#979797" stroke-width="2" stroke-linecap="square" stroke-linejoin="round"></path>
        <path d="M74,145 L74,178" id="Line" stroke="#979797" stroke-width="2" stroke-linecap="square" stroke-linejoin="round" sketch:type="MSShapeGroup"></path>
        <path id="Line-decoration-1" d="M71,167.2 C72.05,170.98 72.95,174.22 74,178 C75.05,174.22 75.95,170.98 77,167.2" stroke="#979797" stroke-width="2" stroke-linecap="square" stroke-linejoin="round"></path>
        <path d="M206,144 L206,221.006493" id="Line" stroke="#979797" stroke-width="2" stroke-linecap="square" stroke-linejoin="round" sketch:type="MSShapeGroup"></path>
        <path id="Line-decoration-1" d="M203,210.2 C204.05,213.98 204.95,217.22 206,221 C207.05,217.22 207.95,213.98 209,210.2" stroke="#979797" stroke-width="2" stroke-linecap="square" stroke-linejoin="round"></path>
        <path d="M206,256 L206,323.006493" id="Line" stroke="#979797" stroke-width="2" stroke-linecap="square" stroke-linejoin="round" sketch:type="MSShapeGroup"></path>
        <path id="Line-decoration-1" d="M203,312.2 C204.05,315.98 204.95,319.22 206,323 C207.05,319.22 207.95,315.98 209,312.2" stroke="#979797" stroke-width="2" stroke-linecap="square" stroke-linejoin="round"></path>
        <path d="M354,145 L354,193" id="Line" stroke="#979797" stroke-width="2" stroke-linecap="square" stroke-linejoin="round" sketch:type="MSShapeGroup"></path>
        <path id="Line-decoration-1" d="M351,182.2 C352.05,185.98 352.95,189.22 354,193 C355.05,189.22 355.95,185.98 357,182.2" stroke="#979797" stroke-width="2" stroke-linecap="square" stroke-linejoin="round"></path>
        <text id="Request-Handler" fill="#000000" sketch:type="MSTextLayer" font-family="Helvetica" font-size="14" font-weight="normal" sketch:alignment="right">
            <tspan x="317.938477" y="134.5">Request Handler</tspan>
        </text>
    </g>
</svg>