<?xml version="1.0" encoding="UTF-8" standalone="no"?>
<svg width="285px" height="243px" viewBox="0 0 285 243" version="1.1" xmlns="http://www.w3.org/2000/svg" xmlns:xlink="http://www.w3.org/1999/xlink" xmlns:sketch="http://www.bohemiancoding.com/sketch/ns">
    <title>typical</title>
    <description>Created with Sketch (http://www.bohemiancoding.com/sketch)</description>
    <defs></defs>
    <g id="Page-1" stroke="none" stroke-width="1" fill="none" fill-rule="evenodd" sketch:type="MSPage">
        <path d="M87,1.5 L87,50.5407982" id="Line" stroke="#000003" stroke-width="2" stroke-linecap="square" sketch:type="MSShapeGroup"></path>
        <path id="Line-decoration-1" d="M84,39.6999999 C85.05,43.4799999 85.95,46.72 87,50.5 C88.05,46.72 88.95,43.4800001 90,39.7000001" stroke="#000003" stroke-width="2" stroke-linecap="square"></path>
        <path d="M86,151.5 L86,184" id="Line" stroke="#000003" stroke-width="2" stroke-linecap="square" sketch:type="MSShapeGroup"></path>
        <path id="Line-decoration-1" d="M83,172.7 C84.05,176.48 84.95,179.72 86,183.5 C87.05,179.72 87.95,176.48 89,172.7" stroke="#000003" stroke-width="2" stroke-linecap="square"></path>
        <text id="/index" sketch:type="MSTextLayer" font-family="Helvetica" font-size="14" font-weight="normal" sketch:alignment="middle" fill="#000000">
            <tspan x="98.5" y="29">/index</tspan>
        </text>
        <rect id="Rectangle-1" stroke="#979797" sketch:type="MSShapeGroup" x="3" y="185" width="170" height="56" rx="8"></rect>
        <text id="View" sketch:type="MSTextLayer" font-family="Helvetica" font-size="14" font-weight="normal" sketch:alignment="middle" fill="#000000">
            <tspan x="74" y="216">View</tspan>
        </text>
        <g id="Group-+-DB" sketch:type="MSLayerGroup" transform="translate(215.000000, 70.000000)">
            <g id="Group" sketch:type="MSShapeGroup">
                <ellipse id="Oval-1" stroke="#979797" fill="#D8D8D8" cx="35" cy="60" rx="33" ry="14"></ellipse>
                <rect id="Rectangle-2" fill="#D8D8D8" x="1" y="15" width="68" height="45"></rect>
                <ellipse id="Oval-1" stroke="#979797" fill="#D8D8D8" cx="35" cy="14" rx="33" ry="14"></ellipse>
                <path d="M1.5,14.5 L1.5,59.5" id="Line" stroke="#979797" stroke-linecap="square"></path>
                <path d="M68.5,14.5 L68.5,59.5" id="Line" stroke="#979797" stroke-linecap="square"></path>
            </g>
            <text id="DB" sketch:type="MSTextLayer" font-family="Helvetica" font-size="14" font-weight="normal" sketch:alignment="middle" fill="#000000">
                <tspan x="25" y="51.2197266">DB</tspan>
            </text>
        </g>
        <path d="M172.5,111 L215.5,111" id="Line" stroke="#000003" stroke-width="2" stroke-linecap="square" sketch:type="MSShapeGroup"></path>
        <path id="Line-decoration-1" d="M204.7,114 C208.48,112.95 211.72,112.05 215.5,111 C211.72,109.95 208.48,109.05 204.7,108" stroke="#000003" stroke-width="2" stroke-linecap="square"></path>
        <rect id="Rectangle-4" fill="#D8D8D8" sketch:type="MSShapeGroup" x="2" y="54" width="169" height="19" rx="8"></rect>
        <rect id="Rectangle-1" stroke="#979797" sketch:type="MSShapeGroup" x="2" y="54" width="170" height="97" rx="8"></rect>
        <text id="Controller" sketch:type="MSTextLayer" font-family="Helvetica" font-size="14" font-weight="normal" sketch:alignment="middle" fill="#000000">
            <tspan x="58" y="69">Controller</tspan>
        </text>
        <path d="M2.5,72.5 L171.50296,72.5" id="Line" stroke="#979797" stroke-linecap="square" sketch:type="MSShapeGroup"></path>
        <path d="M2.5,91.5 L171.50296,91.5" id="Line" stroke="#979797" stroke-linecap="square" sketch:type="MSShapeGroup"></path>
        <path d="M3.5,110.5 L172.50296,110.5" id="Line" stroke="#979797" stroke-linecap="square" sketch:type="MSShapeGroup"></path>
        <path d="M2.5,130.5 L171.50296,130.5" id="Line" stroke="#979797" stroke-linecap="square" sketch:type="MSShapeGroup"></path>
        <text id="Получить-сессию" sketch:type="MSTextLayer" font-family="Helvetica" font-size="13" font-weight="normal" sketch:alignment="middle" fill="#000000">
            <tspan x="33.5" y="88">Получить сессию</tspan>
        </text>
        <text id="Загрузить-отклики" sketch:type="MSTextLayer" font-family="Helvetica" font-size="13" font-weight="normal" sketch:alignment="middle" fill="#000000">
            <tspan x="30.5" y="124">Загрузить отклики</tspan>
        </text>
        <text id="…" sketch:type="MSTextLayer" font-family="Helvetica" font-size="13" font-weight="normal" sketch:alignment="middle" fill="#000000">
            <tspan x="80.5" y="142">…</tspan>
        </text>
        <text id="Загрузить-список-рез" sketch:type="MSTextLayer" font-family="Helvetica" font-size="13" font-weight="normal" sketch:alignment="middle" fill="#000000">
            <tspan x="8.5" y="105">Загрузить список резюме</tspan>
        </text>
    </g>
</svg>